/* XPM */
static const char *const audio_xpm[] = {
"16 16 119 2 0 0",
"   c #8A8986",
"!  c #5F5E5D",
"#  c #707070",
"$  c #8D8D8D",
"%  c #787877",
"&  c #676766",
"'  c #7F7E7C",
"(  c #585758",
")  c #C4C4C3",
"*  c #9E9D9B",
"+  c #7A7A79",
",  c #6E6E6D",
"-  c #686867",
".  c #6A6A69",
"/  c #737473",
"0  c #696866",
"1  c #454545",
"2  c #C1C1C0",
"3  c #BBBBBA",
"4  c #70706F",
"5  c #5B5B5B",
"6  c #505050",
"7  c #4B4B4B",
"8  c #4E4E4E",
"9  c #5C5C5C",
":  c #838382",
";  c #40403E",
"<  c #2E2D2E",
"=  c #969595",
">  c #A5A4A2",
"?  c #7B7B7B",
"@  c #646464",
"A  c #585858",
"B  c #4D4D4D",
"C  c #535353",
"D  c #6B6B6A",
"E  c #81817F",
"F  c #272626",
"G  c #3D3D3D",
"H  c #A8A7A5",
"I  c #939292",
"J  c #777777",
"K  c #757575",
"L  c #B0B0B0",
"M  c #CACACA",
"N  c #6A6A6A",
"O  c #565656",
"P  c #666666",
"Q  c #878784",
"R  c #1D1D1D",
"S  c #535252",
"T  c #AFADAA",
"U  c #9D9D9D",
"V  c #8E8E8E",
"W  c #C0C0C0",
"X  c #CFCFCF",
"Y  c #949494",
"Z  c #656565",
"[  c #686868",
"]  c #747474",
"^  c #A8A8A6",
"_  c #171717",
"`  c #696867",
"a  c #B1B0AE",
"b  c #AAAAAA",
"c  c #767676",
"d  c #979797",
"e  c #989898",
"f  c #808080",
"g  c #797979",
"h  c #D1D1D0",
"i  c #777675",
"j  c #C5C4C3",
"k  c #BCBCBC",
"l  c #595959",
"m  c #5A5A5A",
"n  c #6F6F6F",
"o  c #7F7F7F",
"p  c #828382",
"q  c #909090",
"r  c #8F8F8F",
"s  c #A4A4A4",
"t  c #CBCAC8",
"u  c #727170",
"v  c #D3D2D1",
"w  c #9F9F9F",
"x  c #787878",
"y  c #A1A1A1",
"z  c #A8A8A8",
"{  c #B7B7B5",
"|  c #4B4B4A",
"}  c #D3D2CF",
"~  c #D5D5D5",
" ! c #D1D1D1",
"!! c #BABABA",
"#! c #B5B5B5",
"$! c #BDBDBD",
"%! c #B8B8B8",
"&! c #B7B6B6",
"'! c #BAB9B6",
"(! c #CDCDCB",
")! c #DEDEDE",
"*! c #DCDCDC",
"+! c #E8E8E8",
",! c #E1E1E1",
"-! c #CCCCCC",
".! c #C7C7C6",
"/! c #C1BFBC",
"0! c #9D9B99",
"1! c #CFCDCB",
"2! c #DCDCDB",
"3! c #EFEFEE",
"4! c #E8E8E7",
"5! c #D2D1CF",
"6! c #AAA8A5",
"7! c #4B4B49",
"8! c #82827F",
"9! c #979694",
":! c None",
":!:!:!:!:!:!:!:!:!:!:!:!:!:!:!:!",
":!:!:!:!:!:!:!:!:!:!:!:!:!:!:!:!",
":!:!:!:!:!  ! # $ % & :!:!:!:!:!",
":!:!:!:!' ( ) * + , - . / :!:!:!",
":!:!:!0 1 2 3 4 5 6 7 8 9 : :!:!",
":!:!; < = > ? @ A B 7 B C D E :!",
":!:!F G H I J K L M N O A P Q :!",
":!:!R S T U P V W X Y Z [ ] ^ :!",
":!:!_ ` a b C c d e f ? g $ h :!",
":!:!:!i j k l m n o p q r s t :!",
":!:!:!u v M w 6 C x y z b { :!:!",
":!:!:!| } ~  !!!L #!$!%!&!'!:!:!",
":!:!:!:!^ (!)!*!+!,!-!.!/!:!:!:!",
":!:!:!:!:!0!1!2!3!4!5!6!:!:!:!:!",
":!:!:!:!:!:!7!8!9!E :!:!:!:!:!:!",
":!:!:!:!:!:!:!:!:!:!:!:!:!:!:!:!"
};
