/* XPM */
static const char *const audio_xpm[] = {
"16 16 163 2 0 0",
"   c #5C5958",
"!  c #72706F",
"#  c #7F7D7D",
"$  c #888787",
"%  c #8C8B8B",
"&  c #676563",
"'  c #817F7F",
"(  c #817F7E",
")  c #9D9B9A",
"*  c #A4A2A1",
"+  c #999796",
",  c #8A8887",
"-  c #7C7A79",
".  c #737170",
"/  c #6F6D6C",
"0  c #676564",
"1  c #7A7978",
"2  c #A5A4A3",
"3  c #DBDADA",
"4  c #B9B8B8",
"5  c #ADACAC",
"6  c #BDBCBB",
"7  c #CDCCCC",
"8  c #929190",
"9  c #858382",
":  c #81807F",
";  c #959493",
"<  c #5B5857",
"=  c #777675",
">  c #B0AEAD",
"?  c #CECDCC",
"@  c #9D9C9B",
"A  c #9F9E9D",
"B  c #969595",
"C  c #8F8D8C",
"D  c #939190",
"E  c #716F6E",
"F  c #A09F9E",
"G  c #888786",
"H  c #777573",
"I  c #706E6D",
"J  c #D5D5D4",
"K  c #A7A6A5",
"L  c #B3B2B1",
"M  c #AFAEAD",
"N  c #A8A7A7",
"O  c #9C9B9B",
"P  c #8A8989",
"Q  c #B4B2B1",
"R  c #807E7D",
"S  c #8A8988",
"T  c #ABAAA9",
"U  c #615E5C",
"V  c #C8C7C7",
"W  c #959392",
"X  c #898887",
"Y  c #B5B4B4",
"Z  c #BDBDBC",
"[  c #B4B3B2",
"]  c #A9A8A7",
"^  c #999897",
"_  c #828080",
"`  c #C4C3C2",
"a  c #8B8988",
"b  c #696765",
"c  c #524F4E",
"d  c #787674",
"e  c #DAD9D9",
"f  c #8C8A89",
"g  c #9B9A99",
"h  c #BEBEBD",
"i  c #B0AFAE",
"j  c #A1A1A0",
"k  c #8B8A8A",
"l  c #9A9897",
"m  c #595655",
"n  c #696766",
"o  c #545150",
"p  c #8B8A88",
"q  c #BAB8B8",
"r  c #5F5C5B",
"s  c #878584",
"t  c #C8C8C8",
"u  c #B0B0B1",
"v  c #A2A3A3",
"w  c #98999A",
"x  c #8A8B8C",
"y  c #9E9D9D",
"z  c #A09E9D",
"{  c #464240",
"|  c #4E4B49",
"}  c #575453",
"~  c #545250",
" ! c #918F8E",
"!! c #A8A6A5",
"#! c #403B39",
"$! c #433F3D",
"%! c #848180",
"&! c #D1D0D1",
"'! c #C1C1C1",
"(! c #A6A7A7",
")! c #909293",
"*! c #838688",
"+! c #A1A1A1",
",! c #3A3634",
"-! c #494544",
".! c #4D4A48",
"/! c #666361",
"0! c #858281",
"1! c #D7D6D6",
"2! c #CAC9CA",
"3! c #ACADAE",
"4! c #ACACAC",
"5! c #A4A3A2",
"6! c #8D8C8C",
"7! c #B0B0AF",
"8! c #302B29",
"9! c #686564",
":! c #CFCECD",
";! c #BAB9B9",
"<! c #CAC9C9",
"=! c #C3C3C2",
">! c #A9A9A9",
"?! c #939596",
"@! c #939495",
"A! c #838282",
"B! c #7F7E7D",
"C! c #2F2A28",
"D! c #B9B7B7",
"E! c #B8B8B7",
"F! c #B9B8B7",
"G! c #B4B4B3",
"H! c #ADACAB",
"I! c #8F9192",
"J! c #848688",
"K! c #4A4745",
"L! c #6D6B69",
"M! c #CCCBCB",
"N! c #A1A09F",
"O! c #A9A9A8",
"P! c #A6A5A5",
"Q! c #908F8F",
"R! c #8B8B8C",
"S! c #A7A5A5",
"T! c #747271",
"U! c #312D2A",
"V! c #53504F",
"W! c #C7C7C6",
"X! c #91908F",
"Y! c #8F8E8D",
"Z! c #6B6968",
"[! c #34302E",
"]! c #4F4C4B",
"^! c #5C5857",
"_! c #9F9D9C",
"`! c #969493",
"a! c #6F6C6B",
"b! c #636160",
"c! c #423F3D",
"d! c #4C4947",
"e! c #54514F",
"f! c #585554",
"g! c None",
"g!g!g!g!g!g!g!  ! # $ % g!g!g!g!",
"g!g!g!g!g!g!& ' ( ) * + , g!g!g!",
"g!g!- . / 0 1 2 3 4 5 6 7 8 g!g!",
"g!9 : ; < = > ? @ A B $ C ? D g!",
"E F G H I C J K L M N O P D Q g!",
"R S T U I V W X Y Z [ ] ^ _ ` a ",
"b ! F c d e f [ g 7 h i j k ] l ",
"m   n o p q r s b t u v w x y z ",
"{ | } ~  !!!#!$!%!&!'!(!)!*!+!+ ",
"g!,!-!.!9 [ /!0!1!2!3!4!5!6!7!9 ",
"g!g!8!$!9!:!;!<!<!=!>!?!@!A!L B!",
"g!g!g!C!  D!T E!F!G!H!I!J!O C g!",
"g!g!g!g!K!L!M!N!O!P!y Q!R!S!T!g!",
"g!g!g!g!U!V!d W!2 X!Y!K A Z!g!g!",
"g!g!g!g!g![!]!^!a _!`!a!b!g!g!g!",
"g!g!g!g!g!g!g!c!d!e!f!g!g!g!g!g!"
};
