/* XPM */
static const char *const error_xpm[] = {
"48 48 321 2 0 0",
"   c #A70303",
"!  c #AA0404",
"#  c #A90303",
"$  c #A70202",
"%  c #A50000",
"&  c #A80303",
"'  c #AB0404",
"(  c #A60101",
")  c #B81515",
"*  c #D52F2F",
"+  c #E03A3A",
",  c #E84343",
"-  c #F04C4C",
".  c #F65151",
"/  c #E94343",
"0  c #E13C3C",
"1  c #D63131",
"2  c #BA1616",
"3  c #A70101",
"4  c #B61313",
"5  c #DB3636",
"6  c #F34D4D",
"7  c #F74E4E",
"8  c #F74545",
"9  c #F74141",
":  c #F73E3E",
";  c #F73B3B",
"<  c #F73939",
"=  c #F84646",
">  c #F44F4F",
"?  c #DD3737",
"@  c #B71313",
"A  c #A90202",
"B  c #AA0303",
"C  c #AF0C0C",
"D  c #E13B3B",
"E  c #F74242",
"F  c #F63939",
"G  c #F73737",
"H  c #F83838",
"I  c #F73A3A",
"J  c #F74343",
"K  c #F75151",
"L  c #B20D0D",
"M  c #A90404",
"N  c #D33030",
"O  c #F64343",
"P  c #F63636",
"Q  c #F83939",
"R  c #F93939",
"S  c #F63737",
"T  c #F65252",
"U  c #AA0505",
"V  c #E23F3F",
"W  c #F54C4C",
"X  c #F53636",
"Y  c #F63535",
"Z  c #F93A3A",
"[  c #F64C4C",
"]  c #E44141",
"^  c #A90606",
"_  c #AE0A0A",
"`  c #EA4848",
"a  c #F54646",
"b  c #F53535",
"c  c #FA3A3A",
"d  c #FA3B3B",
"e  c #F64747",
"f  c #ED4B4B",
"g  c #B00C0C",
"h  c #EA4949",
"i  c #F54141",
"j  c #F43333",
"k  c #F53434",
"l  c #FB3C3C",
"m  c #F54242",
"n  c #ED4C4C",
"o  c #AB0606",
"p  c #E13F3F",
"q  c #F44545",
"r  c #FC3D3D",
"s  c #F73838",
"t  c #F54747",
"u  c #E44242",
"v  c #D33131",
"w  c #F44B4B",
"x  c #F33333",
"y  c #FB3B3B",
"z  c #FC3E3E",
"{  c #F43434",
"|  c #F54D4D",
"}  c #D63232",
"~  c #A80202",
" ! c #AE0C0C",
"!! c #F35151",
"#! c #F33232",
"$! c #FD3E3E",
"%! c #FD3F3F",
"&! c #F33434",
"'! c #F45454",
"(! c #B10E0E",
")! c #DD3C3C",
"*! c #F34141",
"+! c #F33131",
",! c #FE4040",
"-! c #F44343",
".! c #E03E3E",
"/! c #B51212",
"0! c #F23131",
"1! c #F73636",
"2! c #F45353",
"3! c #B91414",
"4! c #D93838",
"5! c #F24040",
"6! c #F23030",
"7! c #DD3A3A",
"8! c #A60202",
"9! c #EE5151",
":! c #F13434",
";! c #F23535",
"<! c #F15454",
"=! c #B71616",
">! c #F25050",
"?! c #F12F2F",
"@! c #BB1919",
"A! c #D13131",
"B! c #F24343",
"C! c #F13030",
"D! c #F24545",
"E! c #D63535",
"F! c #DB3E3E",
"G! c #F13D3D",
"H! c #F02F2F",
"I! c #FFF9F9",
"J! c #FFFFFF",
"K! c #F23E3E",
"L! c #E04141",
"M! c #E34646",
"N! c #F13838",
"O! c #F02E2E",
"P! c #F13939",
"Q! c #E94B4B",
"R! c #EB4F4F",
"S! c #EF3333",
"T! c #F03434",
"U! c #EE5353",
"V! c #EE5656",
"W! c #EF2F2F",
"X! c #F03030",
"Y! c #F25959",
"Z! c #A40000",
"[! c #EA5151",
"]! c #EF2E2E",
"^! c #F13131",
"_! c #EF3434",
"`! c #EE5454",
"a! c #E34949",
"b! c #EF3838",
"c! c #F03A3A",
"d! c #E74D4D",
"e! c #DB4141",
"f! c #EF3E3E",
"g! c #F03131",
"h! c #F03F3F",
"i! c #E04444",
"j! c #A80404",
"k! c #D13535",
"l! c #F04646",
"m! c #EE3030",
"n! c #EF3030",
"o! c #EF3131",
"p! c #F03232",
"q! c #F04848",
"r! c #D63939",
"s! c #B91A1A",
"t! c #F05656",
"u! c #EE3131",
"v! c #EF3232",
"w! c #EE3232",
"x! c #F15858",
"y! c #BC1D1D",
"z! c #A70505",
"{! c #EC5B5B",
"|! c #EE3636",
"}! c #EF3535",
"~! c #F03333",
" # c #F03535",
"!# c #EF3737",
"## c #EF5C5C",
"$# c #A90707",
"%# c #D94242",
"&# c #EE3535",
"'# c #F03737",
"(# c #DD4444",
")# c #B81919",
"*# c #F15E5E",
"+# c #EE3737",
",# c #EE3838",
"-# c #F03838",
".# c #EF3939",
"/# c #F16060",
"0# c #BA1B1B",
"1# c #DD4848",
"2# c #EF4C4C",
"3# c #EE3A3A",
"4# c #EF3A3A",
"5# c #F03636",
"6# c #EF3B3B",
"7# c #EE3939",
"8# c #F04D4D",
"9# c #DF4B4B",
":# c #B01515",
";# c #F16363",
"<# c #ED3A3A",
"=# c #EE3B3B",
"># c #EE3C3C",
"?# c #EF3C3C",
"@# c #F16464",
"A# c #B31616",
"B# c #AA0909",
"C# c #D43E3E",
"D# c #F15A5A",
"E# c #EF3D3D",
"F# c #F15B5B",
"G# c #D64141",
"H# c #AA0808",
"I# c #A80909",
"J# c #E05151",
"K# c #EF5353",
"L# c #EF3636",
"M# c #EF3F3F",
"N# c #F05454",
"O# c #E25353",
"P# c #A90808",
"Q# c #AC0E0E",
"R# c #E85C5C",
"S# c #EE4C4C",
"T# c #ED3939",
"U# c #EE3D3D",
"V# c #EE3F3F",
"W# c #EF4040",
"X# c #EA5F5F",
"Y# c #B01414",
"Z# c #EF5454",
"[# c #EE4040",
"]# c #EF4141",
"^# c #EB6060",
"_# c #B21717",
"`# c #AB0E0E",
"a# c #F05C5C",
"b# c #EC3B3B",
"c# c #ED3B3B",
"d# c #EE4141",
"e# c #EF4242",
"f# c #EE3E3E",
"g# c #F05D5D",
"h# c #E25454",
"i# c #950A0A",
"j# c #A70909",
"k# c #D44040",
"l# c #F06767",
"m# c #EF4E4E",
"n# c #EC3939",
"o# c #ED3C3C",
"p# c #ED3D3D",
"q# c #EC3A3A",
"r# c #EF4F4F",
"s# c #D44242",
"t# c #A60808",
"u# c #A40707",
"v# c #B11515",
"w# c #DE4D4D",
"x# c #F06464",
"y# c #EE4B4B",
"z# c #EC3737",
"{# c #EF4D4D",
"|# c #F06666",
"}# c #DE4E4E",
"~# c #B11717",
" $ c #A10707",
"!$ c #A30606",
"#$ c #B61C1C",
"$$ c #DA4949",
"%$ c #ED6565",
"&$ c #F06060",
"'$ c #EE4F4F",
"($ c #ED4747",
")$ c #EC4141",
"*$ c #EB3737",
"+$ c #EC3C3C",
",$ c #EE5050",
"-$ c #F06161",
".$ c #EE6565",
"/$ c #B61D1D",
"0$ c #A30707",
"1$ c #620505",
"2$ c #730606",
"3$ c #9B0606",
"4$ c #A60707",
"5$ c #B71F1F",
"6$ c #D33F3F",
"7$ c #E45757",
"8$ c #EF6969",
"9$ c #EB6161",
":$ c #E55757",
";$ c #DF4F4F",
"<$ c #B72020",
"=$ c #A50707",
">$ c #980707",
"?$ c #670505",
"@$ c #650404",
"A$ c #8C0505",
"B$ c #980606",
"C$ c #A20606",
"D$ c #A40505",
"E$ c #A50404",
"F$ c #9F0606",
"G$ c #980505",
"H$ c #880505",
"I$ c #5D0303",
"J$ c None",
"J$J$J$J$J$J$J$J$J$J$J$J$J$J$J$J$J$J$J$J$J$J$J$J$J$J$J$J$J$J$J$J$J$J$J$J$J$J$J$J$J$J$J$J$J$J$J$J$",
"J$J$J$J$J$J$J$J$J$J$J$J$J$J$J$J$J$J$J$J$J$J$J$J$J$J$J$J$J$J$J$J$J$J$J$J$J$J$J$J$J$J$J$J$J$J$J$J$",
"J$J$J$J$J$J$J$J$J$J$J$J$J$J$J$J$J$J$J$J$J$J$J$J$J$J$J$J$J$J$J$J$J$J$J$J$J$J$J$J$J$J$J$J$J$J$J$J$",
"J$J$J$J$J$J$J$J$J$J$J$J$J$J$J$J$J$J$J$  ! # $ % $ & !   J$J$J$J$J$J$J$J$J$J$J$J$J$J$J$J$J$J$J$J$",
"J$J$J$J$J$J$J$J$J$J$J$J$J$J$J$J$' ( ) * + , - . - / 0 1 2 3 ' J$J$J$J$J$J$J$J$J$J$J$J$J$J$J$J$J$",
"J$J$J$J$J$J$J$J$J$J$J$J$J$J$$ 4 5 6 7 8 9 : ; < ; : 9 = 7 > ? @ A J$J$J$J$J$J$J$J$J$J$J$J$J$J$J$",
"J$J$J$J$J$J$J$J$J$J$J$J$B C D . E F G G G H H H H H H G G I J K 0 L M J$J$J$J$J$J$J$J$J$J$J$J$J$",
"J$J$J$J$J$J$J$J$J$J$J$& N . O P P G G H H Q R R R R Q H H G G S J T 1   J$J$J$J$J$J$J$J$J$J$J$J$",
"J$J$J$J$J$J$J$J$J$J$U V W X Y P G G H Q R Z Z Z Z Z Z R Q H G G P S [ ] ^ J$J$J$J$J$J$J$J$J$J$J$",
"J$J$J$J$J$J$J$J$J$_ ` a b b P G G H Q R Z c d d d d d Z Z R H G G P X e f g J$J$J$J$J$J$J$J$J$J$",
"J$J$J$J$J$J$J$J$U h i j k Y P G H Q R c d d l l l l d d c Z Q H G P Y k m n o J$J$J$J$J$J$J$J$J$",
"J$J$J$J$J$J$J$& p q j k b P G G H R Z d l l r r r r l l d Z R H s G P b k t u   J$J$J$J$J$J$J$J$",
"J$J$J$J$J$J$# v w x j k b P G H Q Z d y l r z z z z r l y d Z Q H G P Y k { | } ~ J$J$J$J$J$J$J$",
"J$J$J$J$J$J$ !!!x #!j k Y P G H R Z d l r z $!%!%!$!z r l d Z R H G P Y k j &!'!(!J$J$J$J$J$J$J$",
"J$J$J$J$J$$ )!*!+!#!j k Y P G H R c d l r $!%!,!,!%!$!r l d c R H G P Y k j #!-!.!A J$J$J$J$J$J$",
"J$J$J$J$J$/!!!0!+!#!j k Y P G H R c d l r $!%!,!,!%!$!r l d c R H G 1!Y k j #!#!2!3!J$J$J$J$J$J$",
"J$J$J$J$B 4!5!6!+!#!j k Y P G H R Z d l r z %!%!%!%!z r l d Z R H G P Y k j #!+!*!7!! J$J$J$J$J$",
"J$J$J$J$8!9!:!6!0!#!j k Y P G H Q Z d l l r z $!$!z r l l d Z R H G P Y k j #!+!;!<!8!J$J$J$J$J$",
"J$J$J$J$=!>!?!6!0!#!j k b P G H H R c d l l r r r r l l d c R Q H G P b k j #!0!6!!!@!J$J$J$J$J$",
"J$J$J$$ A!B!?!C!0!#!j { k Y 1!G H R Z c d l l l l l l d c Z R H G 1!Y b { j #!0!C!D!E!# J$J$J$J$",
"J$J$J$B F!G!H!C!6!+!I!J!J!J!J!J!J!J!J!J!J!J!J!J!J!J!J!J!J!J!J!J!J!J!J!J!I!#!#!0!C!K!L!! J$J$J$J$",
"J$J$J$M M!N!O!?!6!0!J!J!J!J!J!J!J!J!J!J!J!J!J!J!J!J!J!J!J!J!J!J!J!J!J!J!J!#!0!6!?!P!Q!A J$J$J$J$",
"J$J$J$$ R!S!O!?!C!0!J!J!J!J!J!J!J!J!J!J!J!J!J!J!J!J!J!J!J!J!J!J!J!J!J!J!J!#!0!C!?!T!U!( J$J$J$J$",
"J$J$J$( V!W!O!O!?!6!J!J!J!J!J!J!J!J!J!J!J!J!J!J!J!J!J!J!J!J!J!J!J!J!J!J!J!0!6!?!H!X!Y!Z!J$J$J$J$",
"J$J$J$$ [!S!]!H!C!C!J!J!J!J!J!J!J!J!J!J!J!J!J!J!J!J!J!J!J!J!J!J!J!J!J!J!J!0!^!C!H!_!`!( J$J$J$J$",
"J$J$J$A a!b!W!X!H!C!I!J!J!J!J!J!J!J!J!J!J!J!J!J!J!J!J!J!J!J!J!J!J!J!J!J!I!0!C!X!X!c!d!A J$J$J$J$",
"J$J$J$! e!f!]!W!X!g!C!6!0!+!#!j j k k b b Y Y Y Y Y Y b b k k j j #!+!0!0!^!g!X!W!h!i!U J$J$J$J$",
"J$J$J$j!k!l!m!n!o!g!g!C!6!0!+!#!#!j j { k k k k k k k k { j j #!#!+!0!0!^!^!p!o!n!q!r!U J$J$J$J$",
"J$J$J$J$s!t!u!S!S!v!g!g!C!C!0!0!#!#!#!j j j j j j j j j j #!#!#!0!0!0!^!^!p!S!T!w!x!y!J$J$J$J$J$",
"J$J$J$J$z!{!|!S!}!T!v!X!g!C!C!6!0!0!#!#!#!#!#!j j #!#!#!#!#!0!0!6!^!^!g!~!T! #_!!###z!J$J$J$J$J$",
"J$J$J$J$$#%#q!&#!#!#T!v!X!X!C!?!C!6!0!0!0!+!#!#!#!#!+!0!0!0!6!C!C!^!X!~!T!'#!#}!q!(#$#J$J$J$J$J$",
"J$J$J$J$J$)#*#+#,#b!b!T!S!g!X!X!C!?!C!6!6!6!6!0!0!0!6!6!6!C!C!C!g!g!T! #-#.#b!,#/#0#J$J$J$J$J$J$",
"J$J$J$J$J$$#1#2#,#3#4#b! #T!o!X!X!H!C!C!?!?!C!C!C!C!?!C!C!C!X!X!p!T!5#-#6#6#7#8#9#$#J$J$J$J$J$J$",
"J$J$J$J$J$J$:#;#<#=#>#6#b!!#T!S!o!g!X!X!X!H!X!X!X!X!X!X!X!X!p!S!T!'#.#?#?#=#>#@#A#J$J$J$J$J$J$J$",
"J$J$J$J$J$J$B#C#D#<#=#E#E#6#b!!#T!T!v!o!n!g!g!X!g!g!g!o!v!T! #5#.#?#?#f!?#<#F#G#H#J$J$J$J$J$J$J$",
"J$J$J$J$J$J$J$I#J#K#<#>#f!f!E#?#.#b!L# #T!T!T!T!T!T! # #5#b!4#6#E#M#f!E#<#N#O#P#J$J$J$J$J$J$J$J$",
"J$J$J$J$J$J$J$J$Q#R#S#T#U#V#W#M#E#E#?#4#.#.#b!b!b!.#4#4#?#?#f!M#W#W#U#=#2#X#Q#J$J$J$J$J$J$J$J$J$",
"J$J$J$J$J$J$J$J$J$Y#R#Z#<#=#V#[#[#]#W#M#f!f!f!f!f!f!M#M#W#]#]#]#V#U#<#Z#^#_#J$J$J$J$J$J$J$J$J$J$",
"J$J$J$J$J$J$J$J$J$J$`#J#a#b#c#U#V#[#[#d#[#]#]#]#]#]#e#d#[#[#[#f#=#b#g#h#`#i#J$J$J$J$J$J$J$J$J$J$",
"J$J$J$J$J$J$J$J$J$J$J$j#k#l#m#n#<#o#p#V#[#[#[#[#[#[#[#[#f#o#c#q#r#l#s#t#J$J$J$J$J$J$J$J$J$J$J$J$",
"J$J$J$J$J$J$J$J$J$J$J$J$u#v#w#x#y#o#z#T#c#c#c#c#c#c#c#<#z#o#{#|#}#~# $J$J$J$J$J$J$J$J$J$J$J$J$J$",
"J$J$J$J$J$J$J$J$J$J$J$J$J$J$!$#$$$%$&$'$($)$b#*$+$)$($,$-$.$$$/$0$1$J$J$J$J$J$J$J$J$J$J$J$J$J$J$",
"J$J$J$J$J$J$J$J$J$J$J$J$J$J$J$2$3$4$5$6$}#7$^#8$9$:$;$k#<$=$>$?$J$J$J$J$J$J$J$J$J$J$J$J$J$J$J$J$",
"J$J$J$J$J$J$J$J$J$J$J$J$J$J$J$J$J$J$@$A$B$C$D$E$D$F$G$H$I$J$J$J$J$J$J$J$J$J$J$J$J$J$J$J$J$J$J$J$",
"J$J$J$J$J$J$J$J$J$J$J$J$J$J$J$J$J$J$J$J$J$J$J$J$J$J$J$J$J$J$J$J$J$J$J$J$J$J$J$J$J$J$J$J$J$J$J$J$",
"J$J$J$J$J$J$J$J$J$J$J$J$J$J$J$J$J$J$J$J$J$J$J$J$J$J$J$J$J$J$J$J$J$J$J$J$J$J$J$J$J$J$J$J$J$J$J$J$",
"J$J$J$J$J$J$J$J$J$J$J$J$J$J$J$J$J$J$J$J$J$J$J$J$J$J$J$J$J$J$J$J$J$J$J$J$J$J$J$J$J$J$J$J$J$J$J$J$",
"J$J$J$J$J$J$J$J$J$J$J$J$J$J$J$J$J$J$J$J$J$J$J$J$J$J$J$J$J$J$J$J$J$J$J$J$J$J$J$J$J$J$J$J$J$J$J$J$"
};
