/* XPM */
static const char *const information_xpm[] = {
"48 48 359 2 0 0",
"   c #E2E2E2",
"!  c #BABABA",
"#  c #ACACAC",
"$  c #A1A1A1",
"%  c #959595",
"&  c #949494",
"'  c #A1A19F",
"(  c #B0B0B0",
")  c #CFCFCF",
"*  c #B2B2B2",
"+  c #B5B5B5",
",  c #D3D3D3",
"-  c #E5E5E4",
".  c #F1F1F1",
"/  c #F0F0F0",
"0  c #DFDFDF",
"1  c #C3C3C3",
"2  c #9A9A9A",
"3  c #979797",
"4  c #D1D1D1",
"5  c #CBCBCB",
"6  c #9E9E9E",
"7  c #BBBBBB",
"8  c #F8F8F8",
"9  c #FCFCFC",
":  c #FFFFFF",
";  c #FEFEFE",
"<  c #F2F3F2",
"=  c #F1F2F1",
">  c #FAFAFA",
"?  c #C0C0C0",
"@  c #A3A3A3",
"A  c #F4F4F4",
"B  c #F9F9F9",
"C  c #F6F7F6",
"D  c #F4F5F4",
"E  c #C1C1C1",
"F  c #999999",
"G  c #DADADA",
"H  c #A2A2A2",
"I  c #FBFCFB",
"J  c #F3F4F3",
"K  c #FDFDFD",
"L  c #FBFBFB",
"M  c #F7F7F6",
"N  c #F3F3F3",
"O  c #AFAFAF",
"P  c #A6A6A6",
"Q  c #E7E7E7",
"R  c #F8F9F8",
"S  c #F5F6F5",
"T  c #F3F3F2",
"U  c #A8A8A8",
"V  c #CDCDCD",
"W  c #F5F5F5",
"X  c #FCFDFC",
"Y  c #FBFBFA",
"Z  c #FAFAF9",
"[  c #F9FAF9",
"]  c #EEEFEE",
"^  c #FCFCFB",
"_  c #A5A5A5",
"`  c #FAFBFA",
"a  c #F9F9F8",
"b  c #F8F8F7",
"c  c #F6F6F5",
"d  c #BDBEBD",
"e  c #FDFEFD",
"f  c #F7F7F7",
"g  c #F6F6F6",
"h  c #DCDCDB",
"i  c #DDDEDD",
"j  c #F7F8F7",
"k  c #F5F6F4",
"l  c #F4F4F2",
"m  c #F0F1F0",
"n  c #B6B6B6",
"o  c #B8B8B8",
"p  c #EEEEEE",
"q  c #F8F8F6",
"r  c #FAF8EE",
"s  c #FBF8DF",
"t  c #FAF9ED",
"u  c #F9FAF7",
"v  c #F5F5F2",
"w  c #F7F5E5",
"x  c #F8F5DA",
"y  c #F8F8EE",
"z  c #B9B9B9",
"{  c #FAF7E2",
"|  c #FDF7C2",
"}  c #FEF7C0",
"~  c #FDF7CA",
" ! c #FBF8DC",
"!! c #F8F8F3",
"#! c #F6F5EA",
"$! c #F9F6D7",
"%! c #FCF6C9",
"&! c #FDF7C1",
"'! c #FEF9D6",
"(! c #FCFBF4",
")! c #F1F1F0",
"*! c #B1B1B1",
"+! c #C5C5C5",
",! c #F6F6F3",
"-! c #FCF7CE",
".! c #FEF6BE",
"/! c #FEF8C6",
"0! c #FDF8CD",
"1! c #FBF7D2",
"2! c #F9F7DE",
"3! c #F8F7EC",
"4! c #F6F6F4",
"5! c #F7F6E9",
"6! c #F9F6DC",
"7! c #FAF6D1",
"8! c #FCF7CD",
"9! c #FDF7C9",
":! c #FEFADB",
";! c #FDFAE5",
"<! c #B7B8B7",
"=! c #CCCCCC",
">! c #E6E6E6",
"?! c #FCF7CB",
"@! c #FEFAD9",
"A! c #FFFEFA",
"B! c #FDFAE1",
"C! c #FAF7DC",
"D! c #F8F7E8",
"E! c #F7F6E8",
"F! c #FAF8E3",
"G! c #FDFCED",
"H! c #FFFEFB",
"I! c #FDF9D7",
"J! c #FFFCE3",
"K! c #FCF8D8",
"L! c #F6F7F5",
"M! c #E9EAE9",
"N! c #BFBFBF",
"O! c #D9D9D9",
"P! c #F4F4F3",
"Q! c #F9F7E5",
"R! c #FDF6BF",
"S! c #FEFEF8",
"T! c #FEFEFA",
"U! c #FCFCF7",
"V! c #FEFDFB",
"W! c #FEFEFB",
"X! c #FCFBE9",
"Y! c #FAF5CB",
"Z! c #FCF6C2",
"[! c #FEFCE7",
"]! c #F5F3E3",
"^! c #E1E1E1",
"_! c #FAF8E2",
"`! c #FAF5C3",
"a! c #FBF5C7",
"b! c #FCF9E6",
"c! c #FBFAF2",
"d! c #FBFBF9",
"e! c #F9F8EF",
"f! c #F9F6DB",
"g! c #F7F1C4",
"h! c #FAF6D0",
"i! c #FAF9F0",
"j! c #D4D4D4",
"k! c #F7F7F5",
"l! c #F2F1E7",
"m! c #F2EFD3",
"n! c #FBF8D5",
"o! c #FAF7DD",
"p! c #F8F5DD",
"q! c #F3F1D8",
"r! c #E8E6D8",
"s! c #BEBEBE",
"t! c #E2E2E0",
"u! c #F7F7F2",
"v! c #F8F7ED",
"w! c #F7F7F0",
"x! c #F5F5EF",
"y! c #F5F5F1",
"z! c #E2E3E1",
"{! c #EBECEA",
"|! c #F5F5F4",
"}! c #CACBCA",
"~! c #F7F8F6",
" # c #CECECE",
"!# c #EFEFEF",
"## c #F2F2F2",
"$# c #C3C3C2",
"%# c #E3E3E3",
"&# c #DEDEDD",
"'# c #F2F2F1",
"(# c #C6C6C6",
")# c #E5E5E5",
"*# c #E8E9E8",
"+# c #F2F4F2",
",# c #C8C8C8",
"-# c #D1D2D1",
".# c #EBEBEB",
"/# c #E6E7E6",
"0# c #D5D5D5",
"1# c #F0F1EF",
"2# c #D8D8D7",
"3# c #A4A4A4",
"4# c #ACADAC",
"5# c #EDEEED",
"6# c #E7E8E6",
"7# c #D6D7D6",
"8# c #EDEFED",
"9# c #9C9C9C",
":# c #878A87",
";# c #E5E6E5",
"<# c #C7C7C7",
"=# c #D5D6D5",
"># c #D5D5D4",
"?# c #ECECEB",
"@# c #EEEEED",
"A# c #EBECE9",
"B# c #CECFCE",
"C# c #DFE0DF",
"D# c #BCBCBC",
"E# c #E0E1E0",
"F# c #BEBFBE",
"G# c #C1C2C1",
"H# c #CDCECD",
"I# c #E4E5E3",
"J# c #D7D7D5",
"K# c #AAAAAA",
"L# c #E4E4E4",
"M# c #D3D4D3",
"N# c #E7E8E7",
"O# c #EBECEB",
"P# c #EBEBEA",
"Q# c #DFE1DE",
"R# c #BFC1BF",
"S# c #888A88",
"T# c #E1E3E1",
"U# c #DEDEDE",
"V# c #D6D6D6",
"W# c #C9CAC9",
"X# c #DFE0DE",
"Y# c #E9E9E8",
"Z# c #DCDEDC",
"[# c #D7D7D7",
"]# c #C5C6C5",
"^# c #E9EAE6",
"_# c #9B9D9B",
"`# c #D7D8D7",
"a# c #C9C9C9",
"b# c #EAEAEA",
"c# c #DDDDDD",
"d# c #D4D5D4",
"e# c #E2E4DF",
"f# c #A0A6A0",
"g# c #D0D2CE",
"h# c #E3E5E3",
"i# c #D0D1D0",
"j# c #E9E9E9",
"k# c #DEDFDE",
"l# c #D9D9D6",
"m# c #868686",
"n# c #CDCDCA",
"o# c #DDDFDD",
"p# c #CFD0CF",
"q# c #CED0CE",
"r# c #DFE1DF",
"s# c #D3D6D3",
"t# c #4C5151",
"u# c #616664",
"v# c #6E716E",
"w# c #7A7C79",
"x# c #818280",
"y# c #838581",
"z# c #7D7F7D",
"{# c #767876",
"|# c #696D6A",
"}# c #5D6061",
"~# c #47494B",
" $ c #373939",
"!$ c #949794",
"#$ c #666C5E",
"$$ c #777F6C",
"%$ c #8A937D",
"&$ c #868E78",
"'$ c #747C69",
"($ c #636A58",
")$ c #4F5545",
"*$ c #303636",
"+$ c #2E3535",
",$ c #343A39",
"-$ c #52574C",
".$ c #848879",
"/$ c #B2B6A7",
"0$ c #B5BAAA",
"1$ c #8D9381",
"2$ c #666E5C",
"3$ c #5E6456",
"4$ c #82857F",
"5$ c #414541",
"6$ c #404040",
"7$ c #383B3B",
"8$ c #999B97",
"9$ c #6D7460",
":$ c #838B74",
";$ c #9BA48A",
"<$ c #8E977E",
"=$ c #79816B",
">$ c #656C59",
"?$ c #505545",
"@$ c #2F3537",
"A$ c #333333",
"B$ c #363B3A",
"C$ c #4F544A",
"D$ c #6B7060",
"E$ c #C3C6B7",
"F$ c #C5C9BA",
"G$ c #999D8B",
"H$ c #646B5B",
"I$ c #5C6355",
"J$ c #81847D",
"K$ c #454843",
"L$ c #38383C",
"M$ c #353A39",
"N$ c #9DA099",
"O$ c #777F68",
"P$ c #8E977C",
"Q$ c #A0AA8E",
"R$ c #8D957C",
"S$ c #777F6A",
"T$ c #646B58",
"U$ c #484C41",
"V$ c #2F3637",
"W$ c #252525",
"X$ c #343738",
"Y$ c #404340",
"Z$ c #55584F",
"[$ c #909387",
"]$ c #A1A496",
"^$ c #777C6D",
"_$ c #616758",
"`$ c #585E50",
"a$ c #7C7F79",
"b$ c #3D3F3D",
"c$ c #343434",
"d$ c #0B0B0B",
"e$ c #919394",
"f$ c #50574D",
"g$ c #858E76",
"h$ c #909880",
"i$ c #7A816E",
"j$ c #686F5E",
"k$ c #53594C",
"l$ c #333938",
"m$ c #313335",
"n$ c #0A0A0A",
"o$ c #030000",
"p$ c #020000",
"q$ c None",
"q$q$q$q$q$q$q$q$q$q$q$q$q$q$q$q$q$q$q$q$q$q$q$q$q$q$q$q$q$q$q$q$q$q$q$q$q$q$q$q$q$q$q$q$q$q$q$q$",
"q$q$q$q$q$q$q$q$q$q$q$q$q$q$q$q$q$q$q$q$q$q$q$q$q$q$q$q$q$q$q$q$q$q$q$q$q$q$q$q$q$q$q$q$q$q$q$q$",
"q$q$q$q$q$q$q$q$q$q$q$q$q$q$q$q$q$q$q$q$q$q$q$q$q$q$q$q$q$q$q$q$q$q$q$q$q$q$q$q$q$q$q$q$q$q$q$q$",
"q$q$q$q$q$q$q$q$q$q$q$q$q$q$q$q$q$q$q$q$q$  ! # $ % & ' ( ) q$q$q$q$q$q$q$q$q$q$q$q$q$q$q$q$q$q$",
"q$q$q$q$q$q$q$q$q$q$q$q$q$q$q$q$q$q$q$q$* & + , - . / 0 1 2 3 4 q$q$q$q$q$q$q$q$q$q$q$q$q$q$q$q$",
"q$q$q$q$q$q$q$q$q$q$q$q$q$q$q$q$q$q$5 6 7 8 8 9 : : : ; < = > 2 # q$q$q$q$q$q$q$q$q$q$q$q$q$q$q$",
"q$q$q$q$q$q$q$q$q$q$q$q$q$q$q$q$q$? @ > A ; : : : : : : B C . D E F q$q$q$q$q$q$q$q$q$q$q$q$q$q$",
"q$q$q$q$q$q$q$q$q$q$q$q$q$q$q$q$G H I J 8 K : : : : : : L B M = N 1 O q$q$q$q$q$q$q$q$q$q$q$q$q$",
"q$q$q$q$q$q$q$q$q$q$q$q$q$q$q$q$P Q J 8 L K : : ; ; : : L > R S T 8 U V q$q$q$q$q$q$q$q$q$q$q$q$",
"q$q$q$q$q$q$q$q$q$q$q$q$q$q$q$O , 8 W > 9 X ; 9 9 I L Y Z [ R M 8 ] ^ $ q$q$q$q$q$q$q$q$q$q$q$q$",
"q$q$q$q$q$q$q$q$q$q$q$q$q$q$q$_ ; A C L 9 9 9 9 L ` > [ a R b c R < 8 d ) q$q$q$q$q$q$q$q$q$q$q$",
"q$q$q$q$q$q$q$q$q$q$q$q$q$q$1 E e J C > L L L L > > B R b f C S 8 g D h E q$q$q$q$q$q$q$q$q$q$q$",
"q$q$q$q$q$q$q$q$q$q$q$q$q$q$7 i K J g B > Z > > [ a R j C c k l b a m f n q$q$q$q$q$q$q$q$q$q$q$",
"q$q$q$q$q$q$q$q$q$q$q$q$q$q$o p K J g q r s t u R b j g k v w x y L ] [ O q$q$q$q$q$q$q$q$q$q$q$",
"q$q$q$q$q$q$q$q$q$q$q$q$q$q$z N K N k { | } ~  !!!M g k #!$!%!&!'!(!)!S *!q$q$q$q$q$q$q$q$q$q$q$",
"q$q$q$q$q$q$q$q$q$q$q$q$q$q$+!m ; A ,!-!.!/!0!1!2!3!4!5!6!7!8!9!:!;!l . <!q$q$q$q$q$q$q$q$q$q$q$",
"q$q$q$q$q$q$q$q$q$q$q$q$q$q$=!>!; W v ?!.!@!A!B!C!D!,!E!F!G!H!I!J!K!L!M!N!q$q$q$q$q$q$q$q$q$q$q$",
"q$q$q$q$q$q$q$q$q$q$q$q$q$q$, O!; 8 P!Q!} R!I!S!T!U!Y V!W!X!Y!Z![!]!9 , +!q$q$q$q$q$q$q$q$q$q$q$",
"q$q$q$q$q$q$q$q$q$q$q$q$q$q$^!E g 9 < 4!_!`!a!1!b!c!d!e!f!7!g!h!i!P!g , , q$q$q$q$q$q$q$q$q$q$q$",
"q$q$q$q$q$q$q$q$q$q$q$q$q$q$q$N!j!; < D k!l!m!n!o!D!4!E!p!q!r!4!)!9 0 s!q$q$q$q$q$q$q$q$q$q$q$q$",
"q$q$q$q$q$q$q$q$q$q$q$q$q$q$q$j!j!c B N C c t!u!v!w!L!x!y!z!{!|!c f 0 ) q$q$q$q$q$q$q$q$q$q$q$q$",
"q$q$q$q$q$q$q$q$q$q$q$q$q$q$q$q$z }!9 N g 8 Q / j ~!C c m 0 P!T L O!N!q$q$q$q$q$q$q$q$q$q$q$q$q$",
"q$q$q$q$q$q$q$q$q$q$q$q$q$q$q$q$ #}!!#f W R / M![ B b f >!M!J M ##O!=!q$q$q$q$q$q$q$q$q$q$q$q$q$",
"q$q$q$q$q$q$q$q$q$q$q$q$q$q$q$q$q$* $#B N 8 8 %#> L > S &#T '#[ ) z q$q$q$q$q$q$q$q$q$q$q$q$q$q$",
"q$q$q$q$q$q$q$q$q$q$q$q$q$q$q$q$q$(#$#. ##g > )#N I ` *#- < +#N ) ,#q$q$q$q$q$q$q$q$q$q$q$q$q$q$",
"q$q$q$q$q$q$q$q$q$q$q$q$q$q$q$q$q$q$% -###< 8 .#/#L 8 0#1#1#S 2#3#q$q$q$q$q$q$q$q$q$q$q$q$q$q$q$",
"q$q$q$q$q$q$q$q$q$q$q$q$q$q$q$q$q$q$4#-#/ 5#C A j!` 6#7#'#8#D 2#9#q$q$q$q$q$q$q$q$q$q$q$q$q$q$q$",
"q$q$q$q$q$q$q$q$q$q$q$q$q$q$q$q$q$q$4#:#;#.#A C <#N =#>#?#@#A#& q$q$q$q$q$q$q$q$q$q$q$q$q$q$q$q$",
"q$q$q$q$q$q$q$q$q$q$q$q$q$q$q$q$q$q$q$:#B#*#C#/#D#E#F#G#H#I#J#& q$q$q$q$q$q$q$q$q$q$q$q$q$q$q$q$",
"q$q$q$q$q$q$q$q$q$q$q$q$q$q$q$q$q$q$q$:#B#*#C#/#D#E#F#G#H#I#J#K#q$q$q$q$q$q$q$q$q$q$q$q$q$q$q$q$",
"q$q$q$q$q$q$q$q$q$q$q$q$q$q$q$q$q$q$q$4#4#L#M#g N#O#)#P#Q#i R#K#q$q$q$q$q$q$q$q$q$q$q$q$q$q$q$q$",
"q$q$q$q$q$q$q$q$q$q$q$q$q$q$q$q$q$q$q$4#S#T#O!U#V#C#W#-#X#Y#K#K#q$q$q$q$q$q$q$q$q$q$q$q$q$q$q$q$",
"q$q$q$q$q$q$q$q$q$q$q$q$q$q$q$q$q$q$q$q$S#Z#/#}!C#M![#]#O#^#_#q$q$q$q$q$q$q$q$q$q$q$q$q$q$q$q$q$",
"q$q$q$q$q$q$q$q$q$q$q$q$q$q$q$q$q$q$q$q$S#`#N#a#  b#c#d#O#e#f#q$q$q$q$q$q$q$q$q$q$q$q$q$q$q$q$q$",
"q$q$q$q$q$q$q$q$q$q$q$q$q$q$q$q$q$q$q$q$S#g#h#i#  j#k#*#N#l#=!q$q$q$q$q$q$q$q$q$q$q$q$q$q$q$q$q$",
"q$q$q$q$q$q$q$q$q$q$q$q$q$q$q$q$q$q$q$q$m#n#o#=#p#q#H#i r#s#,#q$q$q$q$q$q$q$q$q$q$q$q$q$q$q$q$q$",
"q$q$q$q$q$q$q$q$q$q$q$q$q$q$q$q$q$q$q$q$t#u#v#w#x#y#z#{#|#}#~#q$q$q$q$q$q$q$q$q$q$q$q$q$q$q$q$q$",
"q$q$q$q$q$q$q$q$q$q$q$q$q$q$q$q$q$q$q$q$ $!$#$$$%$&$'$($)$*$+$q$q$q$q$q$q$q$q$q$q$q$q$q$q$q$q$q$",
"q$q$q$q$q$q$q$q$q$q$q$q$q$q$q$q$q$q$q$q$,$-$.$/$0$1$2$3$4$5$6$q$q$q$q$q$q$q$q$q$q$q$q$q$q$q$q$q$",
"q$q$q$q$q$q$q$q$q$q$q$q$q$q$q$q$q$q$q$q$7$8$9$:$;$<$=$>$?$@$A$q$q$q$q$q$q$q$q$q$q$q$q$q$q$q$q$q$",
"q$q$q$q$q$q$q$q$q$q$q$q$q$q$q$q$q$q$q$q$B$C$D$E$F$G$H$I$J$K$L$q$q$q$q$q$q$q$q$q$q$q$q$q$q$q$q$q$",
"q$q$q$q$q$q$q$q$q$q$q$q$q$q$q$q$q$q$q$q$M$N$O$P$Q$R$S$T$U$V$W$q$q$q$q$q$q$q$q$q$q$q$q$q$q$q$q$q$",
"q$q$q$q$q$q$q$q$q$q$q$q$q$q$q$q$q$q$q$q$X$Y$Z$[$]$^$_$`$a$b$c$q$q$q$q$q$q$q$q$q$q$q$q$q$q$q$q$q$",
"q$q$q$q$q$q$q$q$q$q$q$q$q$q$q$q$q$q$q$q$d$e$f$g$h$i$j$k$l$m$n$q$q$q$q$q$q$q$q$q$q$q$q$q$q$q$q$q$",
"q$q$q$q$q$q$q$q$q$q$q$q$q$q$q$q$q$q$q$q$q$e$o$o$o$o$o$p$p$e$q$q$q$q$q$q$q$q$q$q$q$q$q$q$q$q$q$q$",
"q$q$q$q$q$q$q$q$q$q$q$q$q$q$q$q$q$q$q$q$q$q$q$q$o$o$o$q$q$q$q$q$q$q$q$q$q$q$q$q$q$q$q$q$q$q$q$q$",
"q$q$q$q$q$q$q$q$q$q$q$q$q$q$q$q$q$q$q$q$q$q$q$q$q$q$q$q$q$q$q$q$q$q$q$q$q$q$q$q$q$q$q$q$q$q$q$q$",
"q$q$q$q$q$q$q$q$q$q$q$q$q$q$q$q$q$q$q$q$q$q$q$q$q$q$q$q$q$q$q$q$q$q$q$q$q$q$q$q$q$q$q$q$q$q$q$q$"
};
