/* XPM */
static const char *const sound_xpm[] = {
"16 16 188 2 0 0",
"   c #8C8B8B",
"!  c #888787",
"#  c #7F7D7D",
"$  c #72706F",
"%  c #5C5958",
"&  c #8A8887",
"'  c #999796",
"(  c #A4A2A1",
")  c #9D9B9A",
"*  c #817F7E",
"+  c #817F7F",
",  c #676563",
"-  c #929190",
".  c #CDCCCC",
"/  c #BDBCBB",
"0  c #ADACAC",
"1  c #B9B8B8",
"2  c #DBDADA",
"3  c #A5A4A3",
"4  c #7A7978",
"5  c #676564",
"6  c #6F6D6C",
"7  c #737170",
"8  c #7C7A79",
"9  c #939190",
":  c #CECDCC",
";  c #8F8D8C",
"<  c #969595",
"=  c #9F9E9D",
">  c #9D9C9B",
"?  c #B0AEAD",
"@  c #777675",
"A  c #5B5857",
"B  c #959493",
"C  c #81807F",
"D  c #858382",
"E  c #B4B2B1",
"F  c #8A8989",
"G  c #9C9B9B",
"H  c #A8A7A7",
"I  c #AFAEAD",
"J  c #B3B2B1",
"K  c #A7A6A5",
"L  c #D5D5D4",
"M  c #706E6D",
"N  c #777573",
"O  c #888786",
"P  c #A09F9E",
"Q  c #716F6E",
"R  c #8B8988",
"S  c #C4C3C2",
"T  c #828080",
"U  c #999897",
"V  c #A9A8A7",
"W  c #B4B3B2",
"X  c #BDBDBC",
"Y  c #B5B4B4",
"Z  c #898887",
"[  c #959392",
"]  c #C8C7C7",
"^  c #615E5C",
"_  c #ABAAA9",
"`  c #8A8988",
"a  c #807E7D",
"b  c #9A9897",
"c  c #8B8A8A",
"d  c #A1A1A0",
"e  c #B0AFAE",
"f  c #BEBEBD",
"g  c #9B9A99",
"h  c #8C8A89",
"i  c #DAD9D9",
"j  c #787674",
"k  c #524F4E",
"l  c #696765",
"m  c #A09E9D",
"n  c #9E9D9D",
"o  c #8A8B8C",
"p  c #98999A",
"q  c #A2A3A3",
"r  c #B0B0B1",
"s  c #C8C8C8",
"t  c #ADA5A4",
"u  c #CD9C98",
"v  c #CB8A86",
"w  c #BC8C88",
"x  c #A6A09F",
"y  c #5F5C5B",
"z  c #595655",
"{  c #A1A1A1",
"|  c #838688",
"}  c #909293",
"~  c #A6A7A7",
" ! c #C1C1C1",
"!! c #D1D0D1",
"#! c #898786",
"$! c #BE9E9C",
"%! c #C14E48",
"&! c #C34C46",
"'! c #C54F48",
"(! c #C2524C",
")! c #BBA09E",
"*! c #5D5755",
"+! c #B0B0AF",
",! c #8D8C8C",
"-! c #A4A3A2",
".! c #ACACAC",
"/! c #ACADAE",
"0! c #CAC9CA",
"1! c #E4DCDB",
"2! c #C84E48",
"3! c #E19995",
"4! c #E39793",
"5! c #D44F49",
"6! c #E6A09C",
"7! c #DD908C",
"8! c #C9544E",
"9! c #7F7E7D",
":! c #838282",
";! c #939495",
"<! c #939596",
"=! c #A9A9A9",
">! c #C3C3C2",
"?! c #DFA4A0",
"@! c #D64F46",
"A! c #E99894",
"B! c #FEFDFD",
"C! c #F3C7C5",
"D! c #FEFDFC",
"E! c #D98783",
"F! c #DCA29F",
"G! c #848688",
"H! c #8F9192",
"I! c #ADACAB",
"J! c #B4B4B3",
"K! c #E3938D",
"L! c #E25B43",
"M! c #DE3F23",
"N! c #F3C2B8",
"O! c #FFFFFF",
"P! c #E9B5AC",
"Q! c #DD3D23",
"R! c #E25943",
"S! c #DF9792",
"T! c #747271",
"U! c #A7A5A5",
"V! c #8B8B8C",
"W! c #908F8F",
"X! c #A6A5A5",
"Y! c #E0A29E",
"Z! c #DE4226",
"[! c #ED9D82",
"]! c #EABDAB",
"^! c #EA9377",
"_! c #DE3F27",
"`! c #E5A7A4",
"a! c #6B6968",
"b! c #8F8E8D",
"c! c #91908F",
"d! c #CCC4C3",
"e! c #DF4734",
"f! c #E88571",
"g! c #DB856F",
"h! c #DF5015",
"i! c #EA9478",
"j! c #D87668",
"k! c #E04B3B",
"l! c #636160",
"m! c #6F6C6B",
"n! c #969493",
"o! c #9F9D9C",
"p! c #8C8988",
"q! c #CBACA5",
"r! c #E15035",
"s! c #DC3719",
"t! c #DC3A19",
"u! c #DC3619",
"v! c #E1533A",
"w! c #ECC5BE",
"x! c #585554",
"y! c #54514F",
"z! c #4C4947",
"{! c #4F4B49",
"|! c #C9B9B4",
"}! c #EEBAA7",
"~! c #EBA691",
" # c #EEBAA8",
"!# c None",
"!#!#!#!#  ! # $ % !#!#!#!#!#!#!#",
"!#!#!#& ' ( ) * + , !#!#!#!#!#!#",
"!#!#- . / 0 1 2 3 4 5 6 7 8 !#!#",
"!#9 : ; ! < = > : ? @ A B C D !#",
"!#E 9 F G H I J K L ; M N O P Q ",
"R S T U V W X Y Z [ ] M ^ _ ` a ",
"b V c d e f . g W h i j k P $ l ",
"m n o p q r s l h t u v w x y z ",
"' { | } ~  !!!#!$!%!&!'!&!(!)!*!",
"D +!,!-!.!/!0!1!2!3!4!5!6!7!8!!#",
"9!J :!;!<!=!>!?!@!A!B!C!D!E!@!F!",
"!#; G G!H!I!J!K!L!M!N!O!P!Q!R!S!",
"!#T!U!V!W!n X!Y!Z![!D!]!B!^!_!`!",
"!#!#a!= K b!c!d!e!f!g!h!i!j!k!!#",
"!#!#!#l!m!n!o!p!q!r!s!t!u!v!w!!#",
"!#!#!#!#!#x!y!z!{!|!}!~! #!#!#!#"
};
