/* XPM */
static const char * const tv_xpm[] = {
"16 16 8 1",
"  c #000000",
"! c #FFFFFF",
"# c #666666",
"$ c #999999",
"% c #B3B3B3",
"& c #CCCCCC",
"' c #E6E6E6",
"( c None",
"((((((((((((((((",
"((((((((((((((((",
"(              (",
"  !!!!!!!!!!!!  ",
" !            ! ",
" ! #$%&''&%$# ! ",
" ! #$%&!!&%$# ! ",
" ! #$%&!!&%$# ! ",
" ! #$%&!!&%$# ! ",
" ! #$%&!!&%$# ! ",
" ! #$%&''&%$# ! ",
" !            ! ",
"  !!!!!!!!!!!!  ",
"(              (",
"((((((((((((((((",
"(((((((((((((((("
};
