/* XPM */
static const char *const video_xpm[] = {
"16 16 101 2 0 0",
"   c #535355",
"!  c #6D6D6E",
"#  c #929293",
"$  c #49494B",
"%  c #6A6A6B",
"&  c #818182",
"'  c #AAAAAB",
"(  c #D3D3D4",
")  c #BDBEBF",
"*  c #7C7C7E",
"+  c #DADBDC",
",  c #69696B",
"-  c #666668",
".  c #949495",
"/  c #B2B2B3",
"0  c #98999A",
"1  c #B3B3B5",
"2  c #EFF0F1",
"3  c #C0C0C2",
"4  c #5F5F61",
"5  c #A5A6A7",
"6  c #DFE1E2",
"7  c #A4A5A6",
"8  c #5A5B5D",
"9  c #6B6B6D",
":  c #E7E7E8",
";  c #A8A8A9",
"<  c #707173",
"=  c #D6D7D9",
">  c #E1E2E3",
"?  c #8A8B8D",
"@  c #727375",
"A  c #A8A9AB",
"B  c #898B8C",
"C  c #48484A",
"D  c #2C2C2D",
"E  c #B5B5B7",
"F  c #CDCED0",
"G  c #8E8F91",
"H  c #565759",
"I  c #626364",
"J  c #303031",
"K  c #3B3B3D",
"L  c #414243",
"M  c #252526",
"N  c #222223",
"O  c #232324",
"P  c #616162",
"Q  c #212122",
"R  c #F7F8F8",
"S  c #AEAEAF",
"T  c #A3A3A4",
"U  c #ECEDED",
"V  c #CCCDCE",
"W  c #8B8B8D",
"X  c #EAEBEC",
"Y  c #E2E2E3",
"Z  c #838385",
"[  c #EDEEEE",
"]  c #8F9091",
"^  c #D1D1D2",
"_  c #202021",
"`  c #C4C5C6",
"a  c #7D7D7F",
"b  c #C6C7C8",
"c  c #656667",
"d  c #E4E4E5",
"e  c #DFE0E1",
"f  c #636365",
"g  c #CDCECF",
"h  c #EDEEEF",
"i  c #78787A",
"j  c #A9A9AA",
"k  c #F8F8F9",
"l  c #7D7D7E",
"m  c #494A4C",
"n  c #464648",
"o  c #4B4B4D",
"p  c #464749",
"q  c #48494B",
"r  c #4C4C4E",
"s  c #47484A",
"t  c #474749",
"u  c #79797B",
"v  c #222222",
"w  c #7F8081",
"x  c #595A5C",
"y  c #818183",
"z  c #636466",
"{  c #1F1F1F",
"|  c #828486",
"}  c #6D6F71",
"~  c #1E1E1E",
" ! c #868789",
"!! c #78797B",
"#! c #1D1D1D",
"$! c #8D9092",
"%! c #87898B",
"&! c #1C1C1C",
"'! c #1C1B1C",
"(! c None",
"(!(!(!(!(!(!(!(!(!(!(!  ! # $ (!",
"(!(!(!(!(!(!  % & ' ( ) * + , (!",
"(!(!- . / 0 1 2 3 4 5 6 7 8 9 (!",
"(!: ; < = > ? @ A B C D (!(!(!(!",
"(!E F G H I J (!(!(!(!(!(!(!(!(!",
"(!K L D M N O M P (!(!(!(!(!(!(!",
"(!Q R S T U V W X Y Z + [ ] ^ N ",
"(!_ ` a 2 b c d e f g h i j k _ ",
"(!N l m n m o p q r s t r C u v ",
"(!Q w x x x x x x x x x x x w Q ",
"(!_ y z z z z z z z z z z z y _ ",
"(!{ | } } } } } } } } } } } | { ",
"(!~  !!!!!!!!!!!!!!!!!!!!!!! !~ ",
"(!#!$!%!%!%!%!%!%!%!%!%!%!%!$!#!",
"(!(!&!'!'!'!'!'!'!'!'!'!'!'!&!(!",
"(!(!(!(!(!(!(!(!(!(!(!(!(!(!(!(!"
};
