/* XPM */
static const char *const warning_xpm[] = {
"48 48 238 2 0 0",
"   c #2F3537",
"!  c #303637",
"#  c #313738",
"$  c #303537",
"%  c #373D3F",
"&  c #5A5E5D",
"'  c #70716F",
"(  c #6D6F6D",
")  c #595C5A",
"*  c #333A3A",
"+  c #333839",
",  c #70726F",
"-  c #6A6C69",
".  c #5C5E5A",
"/  c #5E605C",
"0  c #6D6F6B",
"1  c #6C6F6C",
"2  c #323839",
"3  c #313637",
"4  c #646766",
"5  c #6C6E6B",
"6  c #555753",
"7  c #6E706D",
"8  c #646765",
"9  c #313638",
":  c #434748",
";  c #7A7B78",
"<  c #565854",
"=  c #454A4A",
">  c #6F716F",
"?  c #666764",
"@  c #646663",
"A  c #727472",
"B  c #303638",
"C  c #494D4D",
"D  c #797B77",
"E  c #4E5251",
"F  c #2F3638",
"G  c #777776",
"H  c #636561",
"I  c #626460",
"J  c #797B78",
"K  c #303738",
"L  c #525756",
"M  c #565853",
"N  c #CA9545",
"O  c #A58149",
"P  c #777975",
"Q  c #555A59",
"R  c #32383A",
"S  c #7C7E7B",
"T  c #60625E",
"U  c #8E754C",
"V  c #FCAF3E",
"W  c #F6AC3F",
"X  c #676151",
"Y  c #7F817E",
"Z  c #34383A",
"[  c #5B5E5E",
"]  c #585852",
"^  c #E4A241",
"_  c #BC8D46",
"`  c #757773",
"a  c #5F6361",
"b  c #34393B",
"c  c #81827F",
"d  c #5D5F5B",
"e  c #9B7B4A",
"f  c #FAAE3E",
"g  c #71664F",
"h  c #5B5D59",
"i  c #828481",
"j  c #373C3E",
"k  c #626463",
"l  c #747572",
"m  c #5D5B52",
"n  c #EDA840",
"o  c #727370",
"p  c #686A68",
"q  c #393F3F",
"r  c #848582",
"s  c #5A5C58",
"t  c #A98349",
"u  c #7D6D4E",
"v  c #595B57",
"w  c #848683",
"x  c #3D4344",
"y  c #686C6A",
"z  c #645E51",
"{  c #F4AB3F",
"|  c #D89C43",
"}  c #6E6F6C",
"~  c #6F7170",
" ! c #3F4445",
"!! c #585A56",
"#! c #B68B47",
"$! c #8C744C",
"%! c #575955",
"&! c #444A4B",
"'! c #2F3636",
"(! c #707270",
")! c #6C6351",
"*! c #F9AE3F",
"+! c #E3A341",
",! c #6A6B68",
"-! c #767876",
".! c #454B4B",
"/! c #828380",
"0! c #C39145",
"1! c #000000",
"2! c #D49434",
"3! c #9B7C4A",
"4! c #80827F",
"5! c #4C5151",
"6! c #2E3335",
"7! c #767976",
"8! c #686966",
"9! c #77694F",
":! c #FBAE3E",
";! c #656763",
"<! c #4D5251",
"=! c #7E807D",
">! c #D19943",
"?! c #A88348",
"@! c #7C7D7A",
"A! c #545958",
"B! c #7A7C79",
"C! c #646562",
"D! c #83704D",
"E! c #0B0803",
"F! c #E09C37",
"G! c #F5AB3F",
"H! c #645F52",
"I! c #565958",
"J! c #DD9E42",
"K! c #2E200B",
"L! c #070502",
"M! c #B88B47",
"N! c #767875",
"O! c #5B5E5D",
"P! c #313639",
"Q! c #7D7E7B",
"R! c #5F615D",
"S! c #91764B",
"T! c #523914",
"U! c #281B0A",
"V! c #F9AD3E",
"W! c #6E6450",
"X! c #2F3538",
"Y! c #5B5E5C",
"Z! c #747673",
"[! c #595952",
"]! c #E7A440",
"^! c #76521D",
"_! c #493312",
"`! c #C69345",
"a! c #71736F",
"b! c #626563",
"c! c #343A3B",
"d! c #9F7E4A",
"e! c #996A26",
"f! c #6C4B1B",
"g! c #796A4F",
"h! c #7F807D",
"i! c #3A3F3F",
"j! c #5F6260",
"k! c #6F716D",
"l! c #5E5C51",
"m! c #EFA840",
"n! c #BE842F",
"o! c #906423",
"p! c #D49A43",
"q! c #6C6D6A",
"r! c #686968",
"s! c #393F40",
"t! c #7B7C79",
"u! c #AB8548",
"v! c #88724D",
"w! c #3F4446",
"x! c #2F3637",
"y! c #636664",
"z! c #665F51",
"{! c #E0A042",
"|! c #575853",
"}! c #666865",
"~! c #6C6D6C",
" # c #3E4243",
"!# c #787A77",
"## c #B98C46",
"$# c #977A4A",
"%# c #686A67",
"&# c #6F654F",
"'# c #EBA640",
"(# c #5C5B52",
")# c #6E716E",
"*# c #444848",
"+# c #727471",
",# c #4C5050",
"-# c #6A6C6A",
".# c #F3AA40",
"/# c #625E51",
"0# c #404546",
"1# c #D69B43",
"2# c #A98448",
"3# c #464B4B",
"4# c #5D5F5E",
"5# c #C49245",
"6# c #A27F49",
"7# c #5D605E",
"8# c #323738",
"9# c #6B6D6B",
":# c #5A5952",
";# c #303536",
"<# c #5F605F",
"=# c #313538",
"># c #2C3335",
"?# c #4A4F4E",
"@# c #525554",
"A# c #2C3233",
"B# c #2F3535",
"C# c #505453",
"D# c #606361",
"E# c #313838",
"F# c #2E3334",
"G# c #545857",
"H# c #646664",
"I# c #70726E",
"J# c #767774",
"K# c #787976",
"L# c #5E615F",
"M# c #141617",
"N# c #1C1F1F",
"O# c #272C2D",
"P# c #2F3335",
"Q# c #2E3436",
"R# c #2D3133",
"S# c #212527",
"T# c None",
"T#T#T#T#T#T#T#T#T#T#T#T#T#T#T#T#T#T#T#T#T#T#T#T#T#T#T#T#T#T#T#T#T#T#T#T#T#T#T#T#T#T#T#T#T#T#T#T#",
"T#T#T#T#T#T#T#T#T#T#T#T#T#T#T#T#T#T#T#T#T#T#T#T#T#T#T#T#T#T#T#T#T#T#T#T#T#T#T#T#T#T#T#T#T#T#T#T#",
"T#T#T#T#T#T#T#T#T#T#T#T#T#T#T#T#T#T#T#T#T#T#T#T#T#T#T#T#T#T#T#T#T#T#T#T#T#T#T#T#T#T#T#T#T#T#T#T#",
"T#T#T#T#T#T#T#T#T#T#T#T#T#T#T#T#T#T#T#T#T#T#T#T#T#T#T#T#T#T#T#T#T#T#T#T#T#T#T#T#T#T#T#T#T#T#T#T#",
"T#T#T#T#T#T#T#T#T#T#T#T#T#T#T#T#T#T#T#T#T#T#  ! # $ T#T#T#T#T#T#T#T#T#T#T#T#T#T#T#T#T#T#T#T#T#T#",
"T#T#T#T#T#T#T#T#T#T#T#T#T#T#T#T#T#T#T#T#T#% & ' ( ) * T#T#T#T#T#T#T#T#T#T#T#T#T#T#T#T#T#T#T#T#T#",
"T#T#T#T#T#T#T#T#T#T#T#T#T#T#T#T#T#T#T#T#+ , - . / 0 1 2 T#T#T#T#T#T#T#T#T#T#T#T#T#T#T#T#T#T#T#T#",
"T#T#T#T#T#T#T#T#T#T#T#T#T#T#T#T#T#T#T#3 4 5 6 6 6 6 7 8 9 T#T#T#T#T#T#T#T#T#T#T#T#T#T#T#T#T#T#T#",
"T#T#T#T#T#T#T#T#T#T#T#T#T#T#T#T#T#T#T#: ; < 6 6 6 6 < ; = T#T#T#T#T#T#T#T#T#T#T#T#T#T#T#T#T#T#T#",
"T#T#T#T#T#T#T#T#T#T#T#T#T#T#T#T#T#T#  > ? 6 6 6 6 6 6 @ A   T#T#T#T#T#T#T#T#T#T#T#T#T#T#T#T#T#T#",
"T#T#T#T#T#T#T#T#T#T#T#T#T#T#T#T#T#B C ; < 6 6 6 6 6 6 6 D E F T#T#T#T#T#T#T#T#T#T#T#T#T#T#T#T#T#",
"T#T#T#T#T#T#T#T#T#T#T#T#T#T#T#T#T#  G H 6 6 6 6 6 6 6 6 I J K T#T#T#T#T#T#T#T#T#T#T#T#T#T#T#T#T#",
"T#T#T#T#T#T#T#T#T#T#T#T#T#T#T#T#9 L D 6 6 6 M N O 6 6 6 6 P Q   T#T#T#T#T#T#T#T#T#T#T#T#T#T#T#T#",
"T#T#T#T#T#T#T#T#T#T#T#T#T#T#T#T#R S T 6 6 6 U V W X 6 6 6 / Y Z T#T#T#T#T#T#T#T#T#T#T#T#T#T#T#T#",
"T#T#T#T#T#T#T#T#T#T#T#T#T#T#T#F [ P 6 6 6 ] ^ V V _ 6 6 6 6 ` a K T#T#T#T#T#T#T#T#T#T#T#T#T#T#T#",
"T#T#T#T#T#T#T#T#T#T#T#T#T#T#T#b c d 6 6 6 e V V V f g 6 6 6 h i j T#T#T#T#T#T#T#T#T#T#T#T#T#T#T#",
"T#T#T#T#T#T#T#T#T#T#T#T#T#T#B k l 6 6 6 m n V V V V N 6 6 6 6 o p B T#T#T#T#T#T#T#T#T#T#T#T#T#T#",
"T#T#T#T#T#T#T#T#T#T#T#T#T#T#q r s 6 6 6 t V V V V V V u 6 6 6 v w x T#T#T#T#T#T#T#T#T#T#T#T#T#T#",
"T#T#T#T#T#T#T#T#T#T#T#T#T#! y , 6 6 6 z { V V V V V V | 6 6 6 6 } ~ 3 T#T#T#T#T#T#T#T#T#T#T#T#T#",
"T#T#T#T#T#T#T#T#T#T#T#T#T# !r !!6 6 6 #!V V V V V V V V $!6 6 6 %!r &!T#T#T#T#T#T#T#T#T#T#T#T#T#",
"T#T#T#T#T#T#T#T#T#T#T#T#'!(!5 6 6 6 )!*!V V V V V V V V +!] 6 6 6 ,!-!$ T#T#T#T#T#T#T#T#T#T#T#T#",
"T#T#T#T#T#T#T#T#T#T#T#T#.!/!< 6 6 6 0!V V V 1!1!1!1!2!V V 3!6 6 6 < 4!5!6!T#T#T#T#T#T#T#T#T#T#T#",
"T#T#T#T#T#T#T#T#T#T#T#F 7!8!6 6 6 9!:!V V V 1!1!1!1!2!V V n m 6 6 6 ;!S $ T#T#T#T#T#T#T#T#T#T#T#",
"T#T#T#T#T#T#T#T#T#T#9 <!=!6 6 6 6 >!V V V V 1!1!1!1!2!V V V ?!6 6 6 6 @!A!K T#T#T#T#T#T#T#T#T#T#",
"T#T#T#T#T#T#T#T#T#T#$ B!C!6 6 6 D!V V V V V E!1!1!1!F!V V V G!H!6 6 6 T Y R T#T#T#T#T#T#T#T#T#T#",
"T#T#T#T#T#T#T#T#T#B I!; 6 6 6 M J!V V V V V K!1!1!L!f V V V V M!6 6 6 6 N!O!P!T#T#T#T#T#T#T#T#T#",
"T#T#T#T#T#T#T#T#T#R Q!R!6 6 6 S!V V V V V V T!1!1!U!V V V V V V!W!6 6 6 . 4!b T#T#T#T#T#T#T#T#T#",
"T#T#T#T#T#T#T#T#X!Y!Z!6 6 6 [!]!V V V V V V ^!1!1!_!V V V V V V `!6 6 6 6 a!b!! T#T#T#T#T#T#T#T#",
"T#T#T#T#T#T#T#T#c!Q!. 6 6 6 d!V V V V V V V e!1!1!f!V V V V V V V g!6 6 6 s h!i!T#T#T#T#T#T#T#T#",
"T#T#T#T#T#T#T## j!k!6 6 6 l!m!V V V V V V V n!L!L!o!V V V V V V V p!6 6 6 6 q!r!3 T#T#T#T#T#T#T#",
"T#T#T#T#T#T#T#s!t!v 6 6 6 u!V V V V V V V V V V V V V V V V V V V V v!6 6 6 %!@!w!T#T#T#T#T#T#T#",
"T#T#T#T#T#T#x!y!- 6 6 6 z!G!V V V V V V V V V V V V V V V V V V V V {!|!6 6 6 }!~!  T#T#T#T#T#T#",
"T#T#T#T#T#T# #!#%!6 6 6 ##V V V V V V V V V 1!1!1!1!V V V V V V V V V $#6 6 6 < P = T#T#T#T#T#T#",
"T#T#T#T#T#  %#? 6 6 6 &#V!V V V V V V V V V 1!1!1!1!V V V V V V V V V '#(#6 6 6 I )#$ T#T#T#T#T#",
"T#T#T#T#T#*#Z!< 6 6 6 `!V V V V V V V V V V 1!1!1!1!V V V V V V V V V V O 6 6 6 6 +#,#x!T#T#T#T#",
"T#T#T#T#F -#I 6 6 6 g!V V V V V V V V V V V V V V V V V V V V V V V V V .#/#6 6 6 / (!K T#T#T#T#",
"T#T#T#T#0#, 6 6 6 6 1#V V V V V V V V V V V V V V V V V V V V V V V V V V 2#6 6 6 6 7 3#T#T#T#T#",
"T#T#T#K 4#H 6 6 6 6 5#G!V V V V V V V V V V V V V V V V V V V V V V V V G!6#6 6 6 6 I 7#8#T#T#T#",
"T#T#T#F 9#s 6 6 6 6 6 M :#:#:#:#:#:#:#:#:#:#:#:#:#:#:#:#:#:#:#:#:#:#:#:#|!6 6 6 6 6 s ( ;#T#T#T#",
"T#T#T#9 <#R!6 6 6 6 6 6 6 6 6 6 6 6 6 6 6 6 6 6 6 6 6 6 6 6 6 6 6 6 6 6 6 6 6 6 6 6 d y!=#T#T#T#",
"T#T#T#>#?#5 !!6 6 6 6 6 6 6 6 6 6 6 6 6 6 6 6 6 6 6 6 6 6 6 6 6 6 6 6 6 6 6 6 6 6 6 ,!@#A#T#T#T#",
"T#T#T#T#B#C#} C!/ !!%!%!%!%!%!!!!!!!!!!!!!!!!!!!!!!!!!!!!!!!!!!!!!!!%!%!%!%!%!s T - D#E#T#T#T#T#",
"T#T#T#T#T#F#0#G#H#I#+#l Z!` J#N!P K#!#!#D D ; ; ; ; ; ; D !#!#K#P N!J#` Z!l +#7 L#<!x!M#T#T#T#T#",
"T#T#T#T#T#T#N#O#P#Q#Q#Q#Q#Q#Q#Q#Q#Q#Q#Q#Q#Q#Q#Q#Q#Q#Q#Q#Q#Q#Q#Q#Q#Q#Q#Q#Q#Q#Q#  R#S#T#T#T#T#T#T#",
"T#T#T#T#T#T#T#T#T#T#T#T#T#T#T#T#T#T#T#T#T#T#T#T#T#T#T#T#T#T#T#T#T#T#T#T#T#T#T#T#T#T#T#T#T#T#T#T#",
"T#T#T#T#T#T#T#T#T#T#T#T#T#T#T#T#T#T#T#T#T#T#T#T#T#T#T#T#T#T#T#T#T#T#T#T#T#T#T#T#T#T#T#T#T#T#T#T#",
"T#T#T#T#T#T#T#T#T#T#T#T#T#T#T#T#T#T#T#T#T#T#T#T#T#T#T#T#T#T#T#T#T#T#T#T#T#T#T#T#T#T#T#T#T#T#T#T#",
"T#T#T#T#T#T#T#T#T#T#T#T#T#T#T#T#T#T#T#T#T#T#T#T#T#T#T#T#T#T#T#T#T#T#T#T#T#T#T#T#T#T#T#T#T#T#T#T#"
};
